<mxfile host="app.diagrams.net" modified="2021-09-04T14:19:53.836Z" agent="5.0 (Windows NT 10.0; Win64; x64) AppleWebKit/537.36 (KHTML, like Gecko) Chrome/92.0.4515.159 Safari/537.36" etag="xt6rW9zPJ2giDiTbet6r" version="15.0.6" type="github">
  <diagram id="kgnJdq5VQi98LMx4Vff6" name="Page-1">
    <mxGraphModel dx="1422" dy="762" grid="1" gridSize="10" guides="1" tooltips="1" connect="1" arrows="1" fold="1" page="1" pageScale="1" pageWidth="1169" pageHeight="827" math="0" shadow="0">
      <root>
        <mxCell id="0" />
        <mxCell id="1" parent="0" />
        <mxCell id="YMthBukLCyZc6VyMMKoa-46" value="Software Delivery" style="rounded=0;whiteSpace=wrap;html=1;container=1;verticalAlign=top;fontSize=37;labelBorderColor=none;fillColor=#f5f5f5;strokeColor=#666666;fontColor=#333333;fontFamily=Verdana;" parent="1" vertex="1">
          <mxGeometry x="62" y="120" width="1040" height="470" as="geometry">
            <mxRectangle x="360" y="240" width="50" height="40" as="alternateBounds" />
          </mxGeometry>
        </mxCell>
        <mxCell id="N6Z_btQFYHQFylgqnzih-9" value="Process" style="shape=process;whiteSpace=wrap;html=1;backgroundOutline=1;fillColor=#dae8fc;strokeColor=#6c8ebf;rounded=1;" vertex="1" parent="YMthBukLCyZc6VyMMKoa-46">
          <mxGeometry x="458.6470588235294" y="130" width="120" height="60" as="geometry" />
        </mxCell>
        <mxCell id="N6Z_btQFYHQFylgqnzih-10" value="Customer" style="shape=umlActor;verticalLabelPosition=bottom;verticalAlign=top;html=1;outlineConnect=0;" vertex="1" parent="YMthBukLCyZc6VyMMKoa-46">
          <mxGeometry x="343.6470588235294" y="130" width="30" height="60" as="geometry" />
        </mxCell>
        <mxCell id="N6Z_btQFYHQFylgqnzih-11" value="Speed" style="rounded=1;whiteSpace=wrap;html=1;shadow=1;glass=0;labelBackgroundColor=none;sketch=0;fontFamily=Verdana;fontSize=14;verticalAlign=top;fillColor=#fff2cc;strokeColor=#d6b656;" vertex="1" parent="YMthBukLCyZc6VyMMKoa-46">
          <mxGeometry x="720" y="60" width="140" height="30" as="geometry" />
        </mxCell>
        <mxCell id="N6Z_btQFYHQFylgqnzih-12" value="Automated" style="rounded=1;whiteSpace=wrap;html=1;shadow=1;glass=0;labelBackgroundColor=none;sketch=0;fontFamily=Verdana;fontSize=14;verticalAlign=top;fillColor=#fff2cc;strokeColor=#d6b656;" vertex="1" parent="YMthBukLCyZc6VyMMKoa-46">
          <mxGeometry x="445" y="60" width="140" height="30" as="geometry" />
        </mxCell>
        <mxCell id="N6Z_btQFYHQFylgqnzih-13" value="" style="shape=mxgraph.signs.travel.present;html=1;pointerEvents=1;fillColor=#d5e8d4;strokeColor=#82b366;verticalLabelPosition=bottom;verticalAlign=top;align=center;rounded=1;glass=0;labelBackgroundColor=none;sketch=0;fontSize=37;noLabel=1;shadow=1;" vertex="1" parent="YMthBukLCyZc6VyMMKoa-46">
          <mxGeometry x="662" y="99" width="76" height="98" as="geometry" />
        </mxCell>
        <mxCell id="N6Z_btQFYHQFylgqnzih-14" value="Change" style="rounded=1;whiteSpace=wrap;html=1;shadow=1;glass=0;labelBackgroundColor=none;sketch=0;fontFamily=Verdana;fontSize=14;verticalAlign=top;fillColor=#fff2cc;strokeColor=#d6b656;" vertex="1" parent="YMthBukLCyZc6VyMMKoa-46">
          <mxGeometry x="180" y="60" width="140" height="30" as="geometry" />
        </mxCell>
        <mxCell id="N6Z_btQFYHQFylgqnzih-1" value="Build" style="rounded=0;whiteSpace=wrap;html=1;shadow=1;glass=0;sketch=1;" vertex="1" parent="YMthBukLCyZc6VyMMKoa-46">
          <mxGeometry x="118" y="294" width="96.35" height="50" as="geometry" />
        </mxCell>
        <mxCell id="N6Z_btQFYHQFylgqnzih-15" style="edgeStyle=orthogonalEdgeStyle;rounded=0;orthogonalLoop=1;jettySize=auto;html=1;exitX=1;exitY=0.5;exitDx=0;exitDy=0;entryX=0;entryY=0.5;entryDx=0;entryDy=0;" edge="1" parent="YMthBukLCyZc6VyMMKoa-46" source="N6Z_btQFYHQFylgqnzih-5" target="N6Z_btQFYHQFylgqnzih-6">
          <mxGeometry relative="1" as="geometry" />
        </mxCell>
        <mxCell id="N6Z_btQFYHQFylgqnzih-5" value="Deploy" style="rounded=0;whiteSpace=wrap;html=1;shadow=1;glass=0;sketch=1;" vertex="1" parent="YMthBukLCyZc6VyMMKoa-46">
          <mxGeometry x="256.65" y="294" width="96.35" height="50" as="geometry" />
        </mxCell>
        <mxCell id="N6Z_btQFYHQFylgqnzih-8" style="edgeStyle=orthogonalEdgeStyle;rounded=0;orthogonalLoop=1;jettySize=auto;html=1;exitX=1;exitY=0.5;exitDx=0;exitDy=0;entryX=0;entryY=0.5;entryDx=0;entryDy=0;" edge="1" parent="YMthBukLCyZc6VyMMKoa-46" source="N6Z_btQFYHQFylgqnzih-1" target="N6Z_btQFYHQFylgqnzih-5">
          <mxGeometry relative="1" as="geometry" />
        </mxCell>
        <mxCell id="N6Z_btQFYHQFylgqnzih-6" value="Test" style="rounded=0;whiteSpace=wrap;html=1;shadow=1;glass=0;sketch=1;" vertex="1" parent="YMthBukLCyZc6VyMMKoa-46">
          <mxGeometry x="397.9999999999999" y="294" width="96.35" height="50" as="geometry" />
        </mxCell>
        <mxCell id="N6Z_btQFYHQFylgqnzih-7" value="Get" style="rounded=0;whiteSpace=wrap;html=1;shadow=1;glass=0;sketch=1;" vertex="1" parent="YMthBukLCyZc6VyMMKoa-46">
          <mxGeometry x="577" y="294" width="96.35" height="50" as="geometry" />
        </mxCell>
        <mxCell id="YMthBukLCyZc6VyMMKoa-12" value="Continuous Learning" style="rounded=1;whiteSpace=wrap;html=1;fillColor=#f5f5f5;strokeColor=#666666;fontColor=#333333;" parent="1" vertex="1">
          <mxGeometry x="280" y="600" width="230" height="30" as="geometry" />
        </mxCell>
        <mxCell id="YMthBukLCyZc6VyMMKoa-51" value="Customer first" style="rounded=1;whiteSpace=wrap;html=1;shadow=1;glass=0;labelBackgroundColor=none;sketch=0;fontFamily=Verdana;fontSize=14;verticalAlign=top;fillColor=#d5e8d4;strokeColor=#82b366;" parent="1" vertex="1">
          <mxGeometry x="380" y="60" width="140" height="30" as="geometry" />
        </mxCell>
        <mxCell id="YMthBukLCyZc6VyMMKoa-52" value="Done= Production" style="rounded=1;whiteSpace=wrap;html=1;shadow=1;glass=0;labelBackgroundColor=none;sketch=0;fontFamily=Verdana;fontSize=14;verticalAlign=top;fillColor=#d5e8d4;strokeColor=#82b366;" parent="1" vertex="1">
          <mxGeometry x="700" y="60" width="140" height="30" as="geometry" />
        </mxCell>
        <mxCell id="YMthBukLCyZc6VyMMKoa-54" value="Think Big - Act Small" style="rounded=1;whiteSpace=wrap;html=1;fillColor=#f5f5f5;strokeColor=#666666;fontColor=#333333;" parent="1" vertex="1">
          <mxGeometry x="520" y="600" width="240" height="30" as="geometry" />
        </mxCell>
        <mxCell id="YMthBukLCyZc6VyMMKoa-55" value="Agile" style="rounded=1;whiteSpace=wrap;html=1;fillColor=#f5f5f5;strokeColor=#666666;fontColor=#333333;" parent="1" vertex="1">
          <mxGeometry x="770" y="600" width="220" height="30" as="geometry" />
        </mxCell>
        <mxCell id="YMthBukLCyZc6VyMMKoa-58" value="Added Value" style="rounded=1;whiteSpace=wrap;html=1;shadow=1;glass=0;labelBackgroundColor=none;sketch=0;fontFamily=Verdana;fontSize=14;verticalAlign=top;fillColor=#d5e8d4;strokeColor=#82b366;" parent="1" vertex="1">
          <mxGeometry x="540" y="60" width="140" height="30" as="geometry" />
        </mxCell>
        <mxCell id="5YKw93YFWr10B1o-Hw19-11" value="CD model" style="swimlane;fontStyle=0;childLayout=stackLayout;horizontal=1;startSize=26;horizontalStack=0;resizeParent=1;resizeParentMax=0;resizeLast=0;collapsible=1;marginBottom=0;rounded=1;shadow=0;glass=0;sketch=0;" parent="1" vertex="1">
          <mxGeometry x="30" y="690" width="510" height="102" as="geometry" />
        </mxCell>
        <mxCell id="5YKw93YFWr10B1o-Hw19-12" value="https://github.com/Sim007/ContinuousDelivery/blob/main/Pictures/CD-CDContainer.drawio" style="text;strokeColor=none;fillColor=none;align=left;verticalAlign=top;spacingLeft=4;spacingRight=4;overflow=hidden;rotatable=0;points=[[0,0.5],[1,0.5]];portConstraint=eastwest;" parent="5YKw93YFWr10B1o-Hw19-11" vertex="1">
          <mxGeometry y="26" width="510" height="24" as="geometry" />
        </mxCell>
        <mxCell id="5YKw93YFWr10B1o-Hw19-13" value="Johannes Sim" style="text;strokeColor=none;fillColor=none;align=left;verticalAlign=top;spacingLeft=4;spacingRight=4;overflow=hidden;rotatable=0;points=[[0,0.5],[1,0.5]];portConstraint=eastwest;" parent="5YKw93YFWr10B1o-Hw19-11" vertex="1">
          <mxGeometry y="50" width="510" height="26" as="geometry" />
        </mxCell>
        <mxCell id="5YKw93YFWr10B1o-Hw19-14" value="4 september 2021" style="text;strokeColor=none;fillColor=none;align=left;verticalAlign=top;spacingLeft=4;spacingRight=4;overflow=hidden;rotatable=0;points=[[0,0.5],[1,0.5]];portConstraint=eastwest;" parent="5YKw93YFWr10B1o-Hw19-11" vertex="1">
          <mxGeometry y="76" width="510" height="26" as="geometry" />
        </mxCell>
        <mxCell id="N6Z_btQFYHQFylgqnzih-19" style="edgeStyle=orthogonalEdgeStyle;rounded=0;orthogonalLoop=1;jettySize=auto;html=1;exitX=1;exitY=0.5;exitDx=0;exitDy=0;entryX=0;entryY=0.5;entryDx=0;entryDy=0;" edge="1" parent="1" source="N6Z_btQFYHQFylgqnzih-16" target="N6Z_btQFYHQFylgqnzih-17">
          <mxGeometry relative="1" as="geometry" />
        </mxCell>
        <mxCell id="N6Z_btQFYHQFylgqnzih-16" value="Deploy" style="rounded=0;whiteSpace=wrap;html=1;shadow=1;glass=0;sketch=1;" vertex="1" parent="1">
          <mxGeometry x="773" y="414" width="96.35" height="50" as="geometry" />
        </mxCell>
        <mxCell id="N6Z_btQFYHQFylgqnzih-17" value="Test" style="rounded=0;whiteSpace=wrap;html=1;shadow=1;glass=0;sketch=1;" vertex="1" parent="1">
          <mxGeometry x="904" y="414" width="96.35" height="50" as="geometry" />
        </mxCell>
        <mxCell id="N6Z_btQFYHQFylgqnzih-18" style="edgeStyle=orthogonalEdgeStyle;rounded=0;orthogonalLoop=1;jettySize=auto;html=1;exitX=1;exitY=0.5;exitDx=0;exitDy=0;" edge="1" parent="1" source="N6Z_btQFYHQFylgqnzih-7" target="N6Z_btQFYHQFylgqnzih-16">
          <mxGeometry relative="1" as="geometry" />
        </mxCell>
      </root>
    </mxGraphModel>
  </diagram>
</mxfile>
